<svg width="512" height="512" viewBox="0 0 512 512" fill="none" xmlns="http://www.w3.org/2000/svg">
<g filter="url(#filter0_d_3_2)">
<mask id="path-1-outside-1_3_2" maskUnits="userSpaceOnUse" x="84" y="105" width="414" height="301" fill="black">
<rect fill="white" x="84" y="105" width="414" height="301"/>
<path d="M174.767 401L91.5284 110.091H158.716L206.869 312.222H209.284L262.409 110.091H319.938L372.92 312.648H375.477L423.631 110.091H490.818L407.58 401H347.636L292.239 210.801H289.966L234.71 401H174.767Z"/>
</mask>
<path d="M174.767 401L91.5284 110.091H158.716L206.869 312.222H209.284L262.409 110.091H319.938L372.92 312.648H375.477L423.631 110.091H490.818L407.58 401H347.636L292.239 210.801H289.966L234.71 401H174.767Z" fill="white"/>
<path d="M174.767 401L169.96 402.375L170.997 406H174.767V401ZM91.5284 110.091V105.091H84.8971L86.7213 111.466L91.5284 110.091ZM158.716 110.091L163.58 108.932L162.665 105.091H158.716V110.091ZM206.869 312.222L202.005 313.38L202.921 317.222H206.869V312.222ZM209.284 312.222V317.222H213.14L214.12 313.493L209.284 312.222ZM262.409 110.091V105.091H258.553L257.573 108.82L262.409 110.091ZM319.938 110.091L324.775 108.826L323.798 105.091H319.938V110.091ZM372.92 312.648L368.083 313.913L369.06 317.648H372.92V312.648ZM375.477 312.648V317.648H379.428L380.342 313.804L375.477 312.648ZM423.631 110.091V105.091H419.68L418.766 108.934L423.631 110.091ZM490.818 110.091L495.625 111.466L497.45 105.091H490.818V110.091ZM407.58 401V406H411.35L412.387 402.375L407.58 401ZM347.636 401L342.836 402.398L343.885 406H347.636V401ZM292.239 210.801L297.039 209.403L295.99 205.801H292.239V210.801ZM289.966 210.801V205.801H286.212L285.164 209.406L289.966 210.801ZM234.71 401V406H238.464L239.512 402.395L234.71 401ZM179.574 399.625L96.3355 108.715L86.7213 111.466L169.96 402.375L179.574 399.625ZM91.5284 115.091H158.716V105.091H91.5284V115.091ZM153.852 111.25L202.005 313.38L211.733 311.063L163.58 108.932L153.852 111.25ZM206.869 317.222H209.284V307.222H206.869V317.222ZM214.12 313.493L267.245 111.362L257.573 108.82L204.448 310.951L214.12 313.493ZM262.409 115.091H319.938V105.091H262.409V115.091ZM315.1 111.356L368.083 313.913L377.758 311.382L324.775 108.826L315.1 111.356ZM372.92 317.648H375.477V307.648H372.92V317.648ZM380.342 313.804L428.495 111.247L418.766 108.934L370.613 311.491L380.342 313.804ZM423.631 115.091H490.818V105.091H423.631V115.091ZM486.011 108.715L402.772 399.625L412.387 402.375L495.625 111.466L486.011 108.715ZM407.58 396H347.636V406H407.58V396ZM352.437 399.602L297.039 209.403L287.438 212.199L342.836 402.398L352.437 399.602ZM292.239 205.801H289.966V215.801H292.239V205.801ZM285.164 209.406L229.909 399.605L239.512 402.395L294.767 212.196L285.164 209.406ZM234.71 396H174.767V406H234.71V396Z" fill="#15499C" mask="url(#path-1-outside-1_3_2)"/>
</g>
<g filter="url(#filter1_d_3_2)">
<mask id="path-3-outside-2_3_2" maskUnits="userSpaceOnUse" x="20" y="105" width="203" height="301" fill="black">
<rect fill="white" x="20" y="105" width="203" height="301"/>
<path d="M25.2841 401V110.091H217.898V160.801H86.7898V230.119H205.114V280.83H86.7898V401H25.2841Z"/>
</mask>
<path d="M25.2841 401V110.091H217.898V160.801H86.7898V230.119H205.114V280.83H86.7898V401H25.2841Z" fill="white"/>
<path d="M25.2841 401H20.2841V406H25.2841V401ZM25.2841 110.091V105.091H20.2841V110.091H25.2841ZM217.898 110.091H222.898V105.091H217.898V110.091ZM217.898 160.801V165.801H222.898V160.801H217.898ZM86.7898 160.801V155.801H81.7898V160.801H86.7898ZM86.7898 230.119H81.7898V235.119H86.7898V230.119ZM205.114 230.119H210.114V225.119H205.114V230.119ZM205.114 280.83V285.83H210.114V280.83H205.114ZM86.7898 280.83V275.83H81.7898V280.83H86.7898ZM86.7898 401V406H91.7898V401H86.7898ZM30.2841 401V110.091H20.2841V401H30.2841ZM25.2841 115.091H217.898V105.091H25.2841V115.091ZM212.898 110.091V160.801H222.898V110.091H212.898ZM217.898 155.801H86.7898V165.801H217.898V155.801ZM81.7898 160.801V230.119H91.7898V160.801H81.7898ZM86.7898 235.119H205.114V225.119H86.7898V235.119ZM200.114 230.119V280.83H210.114V230.119H200.114ZM205.114 275.83H86.7898V285.83H205.114V275.83ZM81.7898 280.83V401H91.7898V280.83H81.7898ZM86.7898 396H25.2841V406H86.7898V396Z" fill="#219F86" mask="url(#path-3-outside-2_3_2)"/>
</g>
<defs>
<filter id="filter0_d_3_2" x="87.5284" y="110.091" width="407.29" height="298.909" filterUnits="userSpaceOnUse" color-interpolation-filters="sRGB">
<feFlood flood-opacity="0" result="BackgroundImageFix"/>
<feColorMatrix in="SourceAlpha" type="matrix" values="0 0 0 0 0 0 0 0 0 0 0 0 0 0 0 0 0 0 127 0" result="hardAlpha"/>
<feOffset dy="4"/>
<feGaussianBlur stdDeviation="2"/>
<feComposite in2="hardAlpha" operator="out"/>
<feColorMatrix type="matrix" values="0 0 0 0 0 0 0 0 0 0 0 0 0 0 0 0 0 0 0.25 0"/>
<feBlend mode="normal" in2="BackgroundImageFix" result="effect1_dropShadow_3_2"/>
<feBlend mode="normal" in="SourceGraphic" in2="effect1_dropShadow_3_2" result="shape"/>
</filter>
<filter id="filter1_d_3_2" x="21.2841" y="110.091" width="200.614" height="298.909" filterUnits="userSpaceOnUse" color-interpolation-filters="sRGB">
<feFlood flood-opacity="0" result="BackgroundImageFix"/>
<feColorMatrix in="SourceAlpha" type="matrix" values="0 0 0 0 0 0 0 0 0 0 0 0 0 0 0 0 0 0 127 0" result="hardAlpha"/>
<feOffset dy="4"/>
<feGaussianBlur stdDeviation="2"/>
<feComposite in2="hardAlpha" operator="out"/>
<feColorMatrix type="matrix" values="0 0 0 0 0 0 0 0 0 0 0 0 0 0 0 0 0 0 0.25 0"/>
<feBlend mode="normal" in2="BackgroundImageFix" result="effect1_dropShadow_3_2"/>
<feBlend mode="normal" in="SourceGraphic" in2="effect1_dropShadow_3_2" result="shape"/>
</filter>
</defs>
</svg>
